<?xml version="1.0" encoding="utf-8"?>
<!-- Generator: Adobe Illustrator 18.0.0, SVG Export Plug-In . SVG Version: 6.00 Build 0)  -->
<!DOCTYPE svg PUBLIC "-//W3C//DTD SVG 1.1//EN" "http://www.w3.org/Graphics/SVG/1.1/DTD/svg11.dtd">
<svg version="1.1" id="Layer_1" xmlns="http://www.w3.org/2000/svg" xmlns:xlink="http://www.w3.org/1999/xlink" x="0px" y="0px"
	 viewBox="0 0 800 600" enable-background="new 0 0 800 600" xml:space="preserve">
<linearGradient id="SVGID_1_" gradientUnits="userSpaceOnUse" x1="400" y1="-1.795888e-008" x2="400" y2="600">
	<stop  offset="0" style="stop-color:#FFF33B"/>
	<stop  offset="0" style="stop-color:#FFF13B"/>
	<stop  offset="0" style="stop-color:#FECC40"/>
	<stop  offset="0" style="stop-color:#F8AD41"/>
	<stop  offset="0" style="stop-color:#F39440"/>
	<stop  offset="0" style="stop-color:#F0823E"/>
	<stop  offset="0" style="stop-color:#EF743D"/>
	<stop  offset="0" style="stop-color:#ED6B3D"/>
	<stop  offset="0" style="stop-color:#ED683C"/>
	<stop  offset="0.4927" style="stop-color:#FDC70C"/>
	<stop  offset="0.6685" style="stop-color:#F3903F"/>
	<stop  offset="1" style="stop-color:#E93E3A"/>
</linearGradient>
<rect fill="url(#SVGID_1_)" stroke="#000000" stroke-miterlimit="10" width="800" height="600"/>
<rect x="-18.7" y="255.8" transform="matrix(0.7853 -0.6191 0.6191 0.7853 -205.5302 432.7535)" fill="#262262" stroke="#000000" stroke-miterlimit="10" width="1079.6" height="513.8"/>
<rect x="193.7" y="90.9" fill="#383E98" stroke="#000000" stroke-miterlimit="10" width="270.1" height="456.3"/>
<rect x="215.9" y="471.5" fill="#F0F0F7" stroke="#000000" stroke-miterlimit="10" width="51.4" height="50.7"/>
<rect x="215.9" y="353.3" fill="#F0F0F7" stroke="#000000" stroke-miterlimit="10" width="51.4" height="50.7"/>
<rect x="215.9" y="411.6" fill="#F0F0F7" stroke="#000000" stroke-miterlimit="10" width="51.4" height="50.7"/>
<rect x="215.9" y="293.7" fill="#FBB040" stroke="#000000" stroke-miterlimit="10" width="51.4" height="50.7"/>
<rect x="275.3" y="293.7" fill="none" width="51.4" height="50.7"/>
<rect x="335" y="293.7" fill="#F0F0F7" stroke="#000000" stroke-miterlimit="10" width="51.4" height="50.7"/>
<rect x="391.9" y="293.7" fill="#F0F0F7" stroke="#000000" stroke-miterlimit="10" width="51.4" height="50.7"/>
<rect x="335" y="353.3" fill="#F0F0F7" stroke="#000000" stroke-miterlimit="10" width="51.4" height="50.7"/>
<rect x="391.9" y="353.3" fill="#F0F0F7" stroke="#000000" stroke-miterlimit="10" width="51.4" height="50.7"/>
<rect x="275.3" y="353.3" fill="#F0F0F7" stroke="#000000" stroke-miterlimit="10" width="51.4" height="50.7"/>
<rect x="275.3" y="411.6" fill="#F0F0F7" stroke="#000000" stroke-miterlimit="10" width="51.4" height="50.7"/>
<rect x="335" y="411.6" fill="#F0F0F7" stroke="#000000" stroke-miterlimit="10" width="51.4" height="50.7"/>
<rect x="391.9" y="411.6" fill="#F0F0F7" stroke="#000000" stroke-miterlimit="10" width="51.4" height="50.7"/>
<rect x="275.3" y="471.5" fill="#F0F0F7" stroke="#000000" stroke-miterlimit="10" width="51.4" height="50.7"/>
<rect x="335" y="471.5" fill="#F0F0F7" stroke="#000000" stroke-miterlimit="10" width="51.4" height="50.7"/>
<rect x="391.9" y="471.5" fill="#F0F0F7" stroke="#000000" stroke-miterlimit="10" width="51.4" height="50.7"/>
<line fill="#FFFFFF" stroke="#000000" stroke-miterlimit="10" x1="215.9" y1="271.5" x2="443.3" y2="271.5"/>
<line fill="#FFFFFF" stroke="#000000" stroke-miterlimit="10" x1="221.3" y1="111.8" x2="448.7" y2="111.8"/>
<rect x="363.8" y="123.6" fill="none" width="86.1" height="66.7"/>
<text transform="matrix(1 0 0 1 363.8057 157.6631)" fill="#FFFFFF" font-family="'MyriadPro-Regular'" font-size="48">16.0</text>
<text transform="matrix(1 0 0 1 222.8335 246.5)" fill="#FBB040" font-family="'MyriadPro-Regular'" font-size="20">8+8=16</text>
<rect x="275.3" y="293.7" fill="#FBB040" width="51.4" height="50.7"/>
</svg>
